<?xml version="1.0" encoding="UTF-8" standalone="no"?>
<!DOCTYPE svg PUBLIC "-//W3C//DTD SVG 1.1//EN" "http://www.w3.org/Graphics/SVG/1.1/DTD/svg11.dtd">
<!-- Generated by graphviz version 2.40.1 (20161225.0304)
 -->
<!-- Title: subleq Pages: 1 -->
<svg width="348pt" height="692pt" viewBox="0.00 0.00 348.00 692.20" xmlns="http://www.w3.org/2000/svg" xmlns:xlink="http://www.w3.org/1999/xlink">
<g id="graph0" class="graph" transform="scale(1 1) rotate(0) translate(4 688.2)">
<title>subleq</title>
<polygon fill="#ffffff" stroke="transparent" points="-4,4 -4,-688.2 344,-688.2 344,4 -4,4"/>
<!-- reset -->
<g id="node1" class="node">
<title>reset</title>
<ellipse fill="none" stroke="#000000" cx="128" cy="-666.2" rx="29.0299" ry="18"/>
<text text-anchor="middle" x="128" y="-662" font-family="Times,serif" font-size="14.00" fill="#000000">reset</text>
</g>
<!-- a -->
<g id="node2" class="node">
<title>a</title>
<ellipse fill="none" stroke="#000000" cx="128" cy="-593.2" rx="27" ry="18"/>
<text text-anchor="middle" x="128" y="-589" font-family="Times,serif" font-size="14.00" fill="#000000">a</text>
</g>
<!-- reset&#45;&gt;a -->
<g id="edge1" class="edge">
<title>reset-&gt;a</title>
<path fill="none" stroke="#000000" d="M128,-648.1551C128,-640.0828 128,-630.3764 128,-621.3817"/>
<polygon fill="#000000" stroke="#000000" points="131.5001,-621.2903 128,-611.2904 124.5001,-621.2904 131.5001,-621.2903"/>
</g>
<!-- a&#45;&gt;a -->
<g id="edge3" class="edge">
<title>a-&gt;a</title>
<path fill="none" stroke="#000000" d="M153.4435,-599.8907C164.0278,-600.3521 173,-598.1219 173,-593.2 173,-589.97 169.136,-587.8992 163.4881,-586.9876"/>
<polygon fill="#000000" stroke="#000000" points="163.5987,-583.489 153.4435,-586.5093 163.2656,-590.4811 163.5987,-583.489"/>
<text text-anchor="middle" x="199.8842" y="-589" font-family="Times,serif" font-size="14.00" fill="#000000">pause = 1</text>
</g>
<!-- b -->
<g id="node3" class="node">
<title>b</title>
<ellipse fill="none" stroke="#000000" cx="183" cy="-520.2" rx="27" ry="18"/>
<text text-anchor="middle" x="183" y="-516" font-family="Times,serif" font-size="14.00" fill="#000000">b</text>
</g>
<!-- a&#45;&gt;b -->
<g id="edge2" class="edge">
<title>a-&gt;b</title>
<path fill="none" stroke="#000000" d="M140.2063,-576.9989C147.3981,-567.4534 156.6362,-555.1919 164.6873,-544.506"/>
<polygon fill="#000000" stroke="#000000" points="167.6057,-546.4488 170.8278,-536.3558 162.0149,-542.2365 167.6057,-546.4488"/>
</g>
<!-- halt -->
<g id="node4" class="node">
<title>halt</title>
<ellipse fill="none" stroke="#000000" cx="55" cy="-520.2" rx="27" ry="18"/>
<text text-anchor="middle" x="55" y="-516" font-family="Times,serif" font-size="14.00" fill="#000000">halt</text>
</g>
<!-- a&#45;&gt;halt -->
<g id="edge4" class="edge">
<title>a-&gt;halt</title>
<path fill="none" stroke="#000000" d="M112.8744,-578.0744C102.597,-567.797 88.8288,-554.0288 77.2999,-542.4999"/>
<polygon fill="#000000" stroke="#000000" points="79.6523,-539.9025 70.1063,-535.3063 74.7025,-544.8523 79.6523,-539.9025"/>
</g>
<!-- c -->
<g id="node5" class="node">
<title>c</title>
<ellipse fill="none" stroke="#000000" cx="183" cy="-447.2" rx="27" ry="18"/>
<text text-anchor="middle" x="183" y="-443" font-family="Times,serif" font-size="14.00" fill="#000000">c</text>
</g>
<!-- b&#45;&gt;c -->
<g id="edge5" class="edge">
<title>b-&gt;c</title>
<path fill="none" stroke="#000000" d="M183,-502.1551C183,-494.0828 183,-484.3764 183,-475.3817"/>
<polygon fill="#000000" stroke="#000000" points="186.5001,-475.2903 183,-465.2904 179.5001,-475.2904 186.5001,-475.2903"/>
</g>
<!-- halt&#45;&gt;halt -->
<g id="edge12" class="edge">
<title>halt-&gt;halt</title>
<path fill="none" stroke="#000000" d="M80.4435,-526.8907C91.0278,-527.3521 100,-525.1219 100,-520.2 100,-516.97 96.136,-514.8992 90.4881,-513.9876"/>
<polygon fill="#000000" stroke="#000000" points="90.5987,-510.489 80.4435,-513.5093 90.2656,-517.4811 90.5987,-510.489"/>
</g>
<!-- la -->
<g id="node6" class="node">
<title>la</title>
<ellipse fill="none" stroke="#000000" cx="183" cy="-374.2" rx="27" ry="18"/>
<text text-anchor="middle" x="183" y="-370" font-family="Times,serif" font-size="14.00" fill="#000000">la</text>
</g>
<!-- c&#45;&gt;la -->
<g id="edge6" class="edge">
<title>c-&gt;la</title>
<path fill="none" stroke="#000000" d="M183,-429.1551C183,-421.0828 183,-411.3764 183,-402.3817"/>
<polygon fill="#000000" stroke="#000000" points="186.5001,-402.2903 183,-392.2904 179.5001,-402.2904 186.5001,-402.2903"/>
</g>
<!-- lb -->
<g id="node7" class="node">
<title>lb</title>
<ellipse fill="none" stroke="#000000" cx="232" cy="-285.4" rx="27" ry="18"/>
<text text-anchor="middle" x="232" y="-281.2" font-family="Times,serif" font-size="14.00" fill="#000000">lb</text>
</g>
<!-- c&#45;&gt;lb -->
<g id="edge7" class="edge">
<title>c-&gt;lb</title>
<path fill="none" stroke="#000000" d="M196.1592,-431.4185C204.1338,-420.9594 213.7513,-406.5634 219,-392.2 228.3108,-366.7203 231.2413,-335.7769 232.0341,-313.77"/>
<polygon fill="#000000" stroke="#000000" points="235.5336,-313.8272 232.2702,-303.7476 228.5356,-313.6623 235.5336,-313.8272"/>
<text text-anchor="middle" x="243.3849" y="-370" font-family="Times,serif" font-size="14.00" fill="#000000">a = -1</text>
</g>
<!-- la&#45;&gt;lb -->
<g id="edge8" class="edge">
<title>la-&gt;lb</title>
<path fill="none" stroke="#000000" d="M192.4477,-357.0785C199.5654,-344.1795 209.4504,-326.2655 217.5575,-311.5734"/>
<polygon fill="#000000" stroke="#000000" points="220.8144,-312.9154 222.5813,-302.469 214.6855,-309.5335 220.8144,-312.9154"/>
</g>
<!-- out -->
<g id="node8" class="node">
<title>out</title>
<ellipse fill="none" stroke="#000000" cx="85" cy="-285.4" rx="27" ry="18"/>
<text text-anchor="middle" x="85" y="-281.2" font-family="Times,serif" font-size="14.00" fill="#000000">out</text>
</g>
<!-- la&#45;&gt;out -->
<g id="edge9" class="edge">
<title>la-&gt;out</title>
<path fill="none" stroke="#000000" d="M172.1242,-357.2637C164.5293,-346.2457 153.6885,-332.007 142,-321.4 134.0043,-314.1441 124.3695,-307.4428 115.3151,-301.8387"/>
<polygon fill="#000000" stroke="#000000" points="116.9209,-298.7215 106.5365,-296.6203 113.344,-304.7387 116.9209,-298.7215"/>
<text text-anchor="middle" x="173.7776" y="-325.6" font-family="Times,serif" font-size="14.00" fill="#000000">b = -1</text>
</g>
<!-- store -->
<g id="node9" class="node">
<title>store</title>
<ellipse fill="none" stroke="#000000" cx="177" cy="-123.6" rx="29.6127" ry="18"/>
<text text-anchor="middle" x="177" y="-119.4" font-family="Times,serif" font-size="14.00" fill="#000000">store</text>
</g>
<!-- lb&#45;&gt;store -->
<g id="edge10" class="edge">
<title>lb-&gt;store</title>
<path fill="none" stroke="#000000" d="M215.6559,-270.9798C202.0982,-257.8411 183.8227,-237.1001 176,-214.6 168.9737,-194.3905 169.6609,-170.0976 171.8671,-151.6967"/>
<polygon fill="#000000" stroke="#000000" points="175.3574,-152.0109 173.2947,-141.6188 168.4266,-151.029 175.3574,-152.0109"/>
</g>
<!-- in -->
<g id="node10" class="node">
<title>in</title>
<ellipse fill="none" stroke="#000000" cx="212" cy="-196.6" rx="27" ry="18"/>
<text text-anchor="middle" x="212" y="-192.4" font-family="Times,serif" font-size="14.00" fill="#000000">in</text>
</g>
<!-- lb&#45;&gt;in -->
<g id="edge11" class="edge">
<title>lb-&gt;in</title>
<path fill="none" stroke="#000000" d="M227.9527,-267.43C225.1876,-255.153 221.4678,-238.6372 218.3158,-224.6421"/>
<polygon fill="#000000" stroke="#000000" points="221.653,-223.5299 216.0413,-214.5433 214.8241,-225.068 221.653,-223.5299"/>
<text text-anchor="middle" x="239.3849" y="-236.8" font-family="Times,serif" font-size="14.00" fill="#000000">a = -1</text>
</g>
<!-- out&#45;&gt;a -->
<g id="edge19" class="edge">
<title>out-&gt;a</title>
<path fill="none" stroke="#000000" d="M98.1351,-301.3015C110.7806,-318.2617 128,-346.451 128,-374.2 128,-520.2 128,-520.2 128,-520.2 128,-534.9004 128,-551.266 128,-564.7698"/>
<polygon fill="#000000" stroke="#000000" points="124.5001,-564.8996 128,-574.8997 131.5001,-564.8997 124.5001,-564.8996"/>
</g>
<!-- out&#45;&gt;out -->
<g id="edge20" class="edge">
<title>out-&gt;out</title>
<path fill="none" stroke="#000000" d="M109.5325,-293.5211C120.5078,-294.2945 130,-291.5875 130,-285.4 130,-281.2428 125.7151,-278.6567 119.5743,-277.6417"/>
<polygon fill="#000000" stroke="#000000" points="119.6524,-274.1424 109.5325,-277.2789 119.3995,-281.1378 119.6524,-274.1424"/>
<text text-anchor="middle" x="158.8302" y="-281.2" font-family="Times,serif" font-size="14.00" fill="#000000">obsy = '1'</text>
</g>
<!-- jmp -->
<g id="node11" class="node">
<title>jmp</title>
<ellipse fill="none" stroke="#000000" cx="127" cy="-18" rx="27" ry="18"/>
<text text-anchor="middle" x="127" y="-13.8" font-family="Times,serif" font-size="14.00" fill="#000000">jmp</text>
</g>
<!-- store&#45;&gt;jmp -->
<g id="edge13" class="edge">
<title>store-&gt;jmp</title>
<path fill="none" stroke="#000000" d="M165.8206,-106.7261C162.1171,-100.8023 158.1203,-94.0216 154.891,-87.6 148.0403,-73.9768 141.6192,-58.2482 136.6691,-45.1934"/>
<polygon fill="#000000" stroke="#000000" points="139.9478,-43.9685 133.1876,-35.8106 133.385,-46.4036 139.9478,-43.9685"/>
<text text-anchor="middle" x="177.0545" y="-75" font-family="Times,serif" font-size="14.00" fill="#000000">jmp</text>
<text text-anchor="middle" x="177.0545" y="-58.2" font-family="Times,serif" font-size="14.00" fill="#000000">res &lt;= 0</text>
</g>
<!-- njmp -->
<g id="node12" class="node">
<title>njmp</title>
<ellipse fill="none" stroke="#000000" cx="227" cy="-18" rx="30.7789" ry="18"/>
<text text-anchor="middle" x="227" y="-13.8" font-family="Times,serif" font-size="14.00" fill="#000000">njmp</text>
</g>
<!-- store&#45;&gt;njmp -->
<g id="edge14" class="edge">
<title>store-&gt;njmp</title>
<path fill="none" stroke="#000000" d="M189.3111,-106.8773C193.3454,-100.9656 197.6481,-94.1539 201,-87.6 207.8127,-74.2793 213.7895,-58.7412 218.2892,-45.7297"/>
<polygon fill="#000000" stroke="#000000" points="221.7151,-46.5209 221.569,-35.9271 215.0769,-44.2998 221.7151,-46.5209"/>
</g>
<!-- in&#45;&gt;store -->
<g id="edge18" class="edge">
<title>in-&gt;store</title>
<path fill="none" stroke="#000000" d="M203.7055,-179.3C199.5513,-170.6357 194.4297,-159.9535 189.7865,-150.269"/>
<polygon fill="#000000" stroke="#000000" points="192.8356,-148.5328 185.3563,-141.0288 186.5236,-151.5591 192.8356,-148.5328"/>
</g>
<!-- in&#45;&gt;in -->
<g id="edge17" class="edge">
<title>in-&gt;in</title>
<path fill="none" stroke="#000000" d="M237.4435,-203.2907C248.0278,-203.7521 257,-201.5219 257,-196.6 257,-193.37 253.136,-191.2992 247.4881,-190.3876"/>
<polygon fill="#000000" stroke="#000000" points="247.5987,-186.889 237.4435,-189.9093 247.2656,-193.8811 247.5987,-186.889"/>
<text text-anchor="middle" x="284.6605" y="-192.4" font-family="Times,serif" font-size="14.00" fill="#000000">ihav = '0'</text>
</g>
<!-- jmp&#45;&gt;a -->
<g id="edge15" class="edge">
<title>jmp-&gt;a</title>
<path fill="none" stroke="#000000" d="M102.5131,-25.8401C65.6084,-39.3683 0,-70.8381 0,-123.6 0,-520.2 0,-520.2 0,-520.2 0,-562.4076 53.1663,-580.5322 90.969,-588.0847"/>
<polygon fill="#000000" stroke="#000000" points="90.7011,-591.5935 101.167,-589.9458 91.9579,-584.7073 90.7011,-591.5935"/>
</g>
<!-- njmp&#45;&gt;a -->
<g id="edge16" class="edge">
<title>njmp-&gt;a</title>
<path fill="none" stroke="#000000" d="M252.6414,-28.3845C285.9812,-43.786 340,-76.0736 340,-123.6 340,-520.2 340,-520.2 340,-520.2 340,-556.8137 225.5244,-579.036 164.8141,-588.2468"/>
<polygon fill="#000000" stroke="#000000" points="164.2329,-584.7945 154.8499,-589.715 165.2534,-591.7198 164.2329,-584.7945"/>
</g>
</g>
</svg>