<?xml version="1.0" encoding="UTF-8" standalone="no"?>
<!DOCTYPE svg PUBLIC "-//W3C//DTD SVG 1.1//EN" "http://www.w3.org/Graphics/SVG/1.1/DTD/svg11.dtd">
<!-- Generated by graphviz version 2.40.1 (20161225.0304)
 -->
<!-- Title: subleq Pages: 1 -->
<svg width="531pt" height="660pt" viewBox="0.00 0.00 531.00 659.60" xmlns="http://www.w3.org/2000/svg" xmlns:xlink="http://www.w3.org/1999/xlink">
<g id="graph0" class="graph" transform="scale(1 1) rotate(0) translate(4 655.6)">
<title>subleq</title>
<polygon fill="#ffffff" stroke="transparent" points="-4,4 -4,-655.6 527,-655.6 527,4 -4,4"/>
<!-- reset -->
<g id="node1" class="node">
<title>reset</title>
<ellipse fill="none" stroke="#000000" cx="300" cy="-633.6" rx="29.0299" ry="18"/>
<text text-anchor="middle" x="300" y="-629.4" font-family="Times,serif" font-size="14.00" fill="#000000">reset</text>
</g>
<!-- a -->
<g id="node2" class="node">
<title>a</title>
<ellipse fill="none" stroke="#000000" cx="300" cy="-560.6" rx="27" ry="18"/>
<text text-anchor="middle" x="300" y="-556.4" font-family="Times,serif" font-size="14.00" fill="#000000">a</text>
</g>
<!-- reset&#45;&gt;a -->
<g id="edge1" class="edge">
<title>reset-&gt;a</title>
<path fill="none" stroke="#000000" d="M300,-615.5551C300,-607.4828 300,-597.7764 300,-588.7817"/>
<polygon fill="#000000" stroke="#000000" points="303.5001,-588.6903 300,-578.6904 296.5001,-588.6904 303.5001,-588.6903"/>
</g>
<!-- a&#45;&gt;a -->
<g id="edge3" class="edge">
<title>a-&gt;a</title>
<path fill="none" stroke="#000000" d="M325.4435,-567.2907C336.0278,-567.7521 345,-565.5219 345,-560.6 345,-557.37 341.136,-555.2992 335.4881,-554.3876"/>
<polygon fill="#000000" stroke="#000000" points="335.5987,-550.889 325.4435,-553.9093 335.2656,-557.8811 335.5987,-550.889"/>
<text text-anchor="middle" x="371.8842" y="-556.4" font-family="Times,serif" font-size="14.00" fill="#000000">pause = 1</text>
</g>
<!-- b -->
<g id="node3" class="node">
<title>b</title>
<ellipse fill="none" stroke="#000000" cx="242" cy="-487.6" rx="27" ry="18"/>
<text text-anchor="middle" x="242" y="-483.4" font-family="Times,serif" font-size="14.00" fill="#000000">b</text>
</g>
<!-- a&#45;&gt;b -->
<g id="edge2" class="edge">
<title>a-&gt;b</title>
<path fill="none" stroke="#000000" d="M287.1279,-544.3989C279.4687,-534.7589 269.6087,-522.3489 261.0598,-511.589"/>
<polygon fill="#000000" stroke="#000000" points="263.7972,-509.4081 254.8361,-503.7558 258.3165,-513.7626 263.7972,-509.4081"/>
</g>
<!-- halt -->
<g id="node4" class="node">
<title>halt</title>
<ellipse fill="none" stroke="#000000" cx="478" cy="-487.6" rx="27" ry="18"/>
<text text-anchor="middle" x="478" y="-483.4" font-family="Times,serif" font-size="14.00" fill="#000000">halt</text>
</g>
<!-- a&#45;&gt;halt -->
<g id="edge4" class="edge">
<title>a-&gt;halt</title>
<path fill="none" stroke="#000000" d="M326.617,-557.4243C355.2743,-553.159 401.5206,-543.7786 437,-524.6 443.9585,-520.8385 450.6901,-515.6588 456.6184,-510.3656"/>
<polygon fill="#000000" stroke="#000000" points="459.3178,-512.6283 464.1503,-503.1998 454.4928,-507.5569 459.3178,-512.6283"/>
</g>
<!-- c -->
<g id="node5" class="node">
<title>c</title>
<ellipse fill="none" stroke="#000000" cx="239" cy="-414.6" rx="27" ry="18"/>
<text text-anchor="middle" x="239" y="-410.4" font-family="Times,serif" font-size="14.00" fill="#000000">c</text>
</g>
<!-- b&#45;&gt;c -->
<g id="edge5" class="edge">
<title>b-&gt;c</title>
<path fill="none" stroke="#000000" d="M241.2584,-469.5551C240.9267,-461.4828 240.5278,-451.7764 240.1582,-442.7817"/>
<polygon fill="#000000" stroke="#000000" points="243.6512,-442.5382 239.7434,-432.6904 236.6571,-442.8257 243.6512,-442.5382"/>
</g>
<!-- halt&#45;&gt;halt -->
<g id="edge11" class="edge">
<title>halt-&gt;halt</title>
<path fill="none" stroke="#000000" d="M503.4435,-494.2907C514.0278,-494.7521 523,-492.5219 523,-487.6 523,-484.37 519.136,-482.2992 513.4881,-481.3876"/>
<polygon fill="#000000" stroke="#000000" points="513.5987,-477.889 503.4435,-480.9093 513.2656,-484.8811 513.5987,-477.889"/>
</g>
<!-- la -->
<g id="node6" class="node">
<title>la</title>
<ellipse fill="none" stroke="#000000" cx="232" cy="-341.6" rx="27" ry="18"/>
<text text-anchor="middle" x="232" y="-337.4" font-family="Times,serif" font-size="14.00" fill="#000000">la</text>
</g>
<!-- c&#45;&gt;la -->
<g id="edge6" class="edge">
<title>c-&gt;la</title>
<path fill="none" stroke="#000000" d="M237.2697,-396.5551C236.4956,-388.4828 235.5649,-378.7764 234.7024,-369.7817"/>
<polygon fill="#000000" stroke="#000000" points="238.1733,-369.3106 233.7347,-359.6904 231.2053,-369.9788 238.1733,-369.3106"/>
</g>
<!-- lb -->
<g id="node7" class="node">
<title>lb</title>
<ellipse fill="none" stroke="#000000" cx="221" cy="-268.6" rx="27" ry="18"/>
<text text-anchor="middle" x="221" y="-264.4" font-family="Times,serif" font-size="14.00" fill="#000000">lb</text>
</g>
<!-- la&#45;&gt;lb -->
<g id="edge7" class="edge">
<title>la-&gt;lb</title>
<path fill="none" stroke="#000000" d="M229.2809,-323.5551C228.0645,-315.4828 226.6019,-305.7764 225.2466,-296.7817"/>
<polygon fill="#000000" stroke="#000000" points="228.677,-296.0572 223.7259,-286.6904 221.7551,-297.1003 228.677,-296.0572"/>
</g>
<!-- store -->
<g id="node8" class="node">
<title>store</title>
<ellipse fill="none" stroke="#000000" cx="218" cy="-179.8" rx="29.6127" ry="18"/>
<text text-anchor="middle" x="218" y="-175.6" font-family="Times,serif" font-size="14.00" fill="#000000">store</text>
</g>
<!-- lb&#45;&gt;store -->
<g id="edge8" class="edge">
<title>lb-&gt;store</title>
<path fill="none" stroke="#000000" d="M220.3784,-250.2006C219.9694,-238.0949 219.4259,-222.0076 218.9617,-208.2674"/>
<polygon fill="#000000" stroke="#000000" points="222.4463,-207.7481 218.6105,-197.872 215.4503,-207.9845 222.4463,-207.7481"/>
</g>
<!-- in -->
<g id="node9" class="node">
<title>in</title>
<ellipse fill="none" stroke="#000000" cx="70" cy="-179.8" rx="27" ry="18"/>
<text text-anchor="middle" x="70" y="-175.6" font-family="Times,serif" font-size="14.00" fill="#000000">in</text>
</g>
<!-- lb&#45;&gt;in -->
<g id="edge9" class="edge">
<title>lb-&gt;in</title>
<path fill="none" stroke="#000000" d="M200.6355,-256.624C174.5179,-241.2648 129.0455,-214.5234 99.2343,-196.9921"/>
<polygon fill="#000000" stroke="#000000" points="100.9183,-193.9221 90.5241,-191.8698 97.3698,-199.9561 100.9183,-193.9221"/>
<text text-anchor="middle" x="176.3849" y="-220" font-family="Times,serif" font-size="14.00" fill="#000000">a = -1</text>
</g>
<!-- out -->
<g id="node10" class="node">
<title>out</title>
<ellipse fill="none" stroke="#000000" cx="293" cy="-179.8" rx="27" ry="18"/>
<text text-anchor="middle" x="293" y="-175.6" font-family="Times,serif" font-size="14.00" fill="#000000">out</text>
</g>
<!-- lb&#45;&gt;out -->
<g id="edge10" class="edge">
<title>lb-&gt;out</title>
<path fill="none" stroke="#000000" d="M229.6684,-251.0759C235.3899,-240.3516 243.4696,-226.6528 252.4448,-215.8 256.9597,-210.3405 262.3245,-204.9801 267.6494,-200.1322"/>
<polygon fill="#000000" stroke="#000000" points="270.0822,-202.6546 275.3188,-193.4443 265.4816,-197.3787 270.0822,-202.6546"/>
<text text-anchor="middle" x="269.7776" y="-220" font-family="Times,serif" font-size="14.00" fill="#000000">b = -1</text>
</g>
<!-- jmp -->
<g id="node11" class="node">
<title>jmp</title>
<ellipse fill="none" stroke="#000000" cx="27" cy="-91" rx="27" ry="18"/>
<text text-anchor="middle" x="27" y="-86.8" font-family="Times,serif" font-size="14.00" fill="#000000">jmp</text>
</g>
<!-- store&#45;&gt;jmp -->
<g id="edge12" class="edge">
<title>store-&gt;jmp</title>
<path fill="none" stroke="#000000" d="M194.1959,-168.733C159.9015,-152.7888 96.5385,-123.3299 58.4327,-105.6137"/>
<polygon fill="#000000" stroke="#000000" points="59.8655,-102.4201 49.322,-101.378 56.9144,-108.7677 59.8655,-102.4201"/>
<text text-anchor="middle" x="163.0545" y="-131.2" font-family="Times,serif" font-size="14.00" fill="#000000">res &lt;= 0</text>
</g>
<!-- njmp -->
<g id="node12" class="node">
<title>njmp</title>
<ellipse fill="none" stroke="#000000" cx="218" cy="-18" rx="30.7789" ry="18"/>
<text text-anchor="middle" x="218" y="-13.8" font-family="Times,serif" font-size="14.00" fill="#000000">njmp</text>
</g>
<!-- store&#45;&gt;njmp -->
<g id="edge13" class="edge">
<title>store-&gt;njmp</title>
<path fill="none" stroke="#000000" d="M218,-161.554C218,-133.6351 218,-80.0651 218,-46.8464"/>
<polygon fill="#000000" stroke="#000000" points="221.5001,-46.4275 218,-36.4276 214.5001,-46.4276 221.5001,-46.4275"/>
</g>
<!-- in&#45;&gt;in -->
<g id="edge16" class="edge">
<title>in-&gt;in</title>
<path fill="none" stroke="#000000" d="M94.5325,-187.9211C105.5078,-188.6945 115,-185.9875 115,-179.8 115,-175.6428 110.7151,-173.0567 104.5743,-172.0417"/>
<polygon fill="#000000" stroke="#000000" points="104.6524,-168.5424 94.5325,-171.6789 104.3995,-175.5378 104.6524,-168.5424"/>
<text text-anchor="middle" x="142.6605" y="-175.6" font-family="Times,serif" font-size="14.00" fill="#000000">ihav = '0'</text>
</g>
<!-- in&#45;store -->
<g id="node13" class="node">
<title>in-store</title>
<ellipse fill="none" stroke="#000000" cx="137" cy="-91" rx="40.5654" ry="18"/>
<text text-anchor="middle" x="137" y="-86.8" font-family="Times,serif" font-size="14.00" fill="#000000">in-store</text>
</g>
<!-- in&#45;&gt;in&#45;store -->
<g id="edge17" class="edge">
<title>in-&gt;in-store</title>
<path fill="none" stroke="#000000" d="M81.4169,-163.4574C88.8479,-152.941 98.8296,-139.0388 108,-127 110.7553,-123.3829 113.7115,-119.6035 116.6446,-115.9109"/>
<polygon fill="#000000" stroke="#000000" points="119.4136,-118.0524 122.942,-108.0624 113.9539,-113.6716 119.4136,-118.0524"/>
</g>
<!-- out&#45;&gt;a -->
<g id="edge19" class="edge">
<title>out-&gt;a</title>
<path fill="none" stroke="#000000" d="M295.2534,-197.7951C297.2997,-215.7112 300,-244.0115 300,-268.6 300,-487.6 300,-487.6 300,-487.6 300,-502.3004 300,-518.666 300,-532.1698"/>
<polygon fill="#000000" stroke="#000000" points="296.5001,-532.2996 300,-542.2997 303.5001,-532.2997 296.5001,-532.2996"/>
</g>
<!-- out&#45;&gt;out -->
<g id="edge20" class="edge">
<title>out-&gt;out</title>
<path fill="none" stroke="#000000" d="M317.5325,-187.9211C328.5078,-188.6945 338,-185.9875 338,-179.8 338,-175.6428 333.7151,-173.0567 327.5743,-172.0417"/>
<polygon fill="#000000" stroke="#000000" points="327.6524,-168.5424 317.5325,-171.6789 327.3995,-175.5378 327.6524,-168.5424"/>
<text text-anchor="middle" x="366.8302" y="-175.6" font-family="Times,serif" font-size="14.00" fill="#000000">obsy = '1'</text>
</g>
<!-- jmp&#45;&gt;a -->
<g id="edge14" class="edge">
<title>jmp-&gt;a</title>
<path fill="none" stroke="#000000" d="M23.1371,-108.9319C19.6291,-126.8 15,-155.0647 15,-179.8 15,-487.6 15,-487.6 15,-487.6 15,-538.1504 185.3852,-554.1719 262.6709,-558.839"/>
<polygon fill="#000000" stroke="#000000" points="262.7477,-562.349 272.931,-559.4246 263.1467,-555.3603 262.7477,-562.349"/>
</g>
<!-- njmp&#45;&gt;a -->
<g id="edge15" class="edge">
<title>njmp-&gt;a</title>
<path fill="none" stroke="#000000" d="M248.2485,-22.323C305.2726,-31.3271 423,-54.3539 423,-91 423,-487.6 423,-487.6 423,-487.6 423,-528.2292 372.7561,-546.7433 336.4931,-554.8146"/>
<polygon fill="#000000" stroke="#000000" points="335.7828,-551.3873 326.6892,-556.8239 337.1883,-558.2448 335.7828,-551.3873"/>
</g>
<!-- in&#45;store&#45;&gt;njmp -->
<g id="edge18" class="edge">
<title>in-store-&gt;njmp</title>
<path fill="none" stroke="#000000" d="M154.9765,-74.7989C166.2935,-64.5997 181.0509,-51.2998 193.4402,-40.1341"/>
<polygon fill="#000000" stroke="#000000" points="196.0946,-42.4536 201.1799,-33.1589 191.4083,-37.2537 196.0946,-42.4536"/>
</g>
</g>
</svg>